<?xml version="1.0" standalone="no"?>
<!DOCTYPE svg PUBLIC "-//W3C//DTD SVG 20010904//EN"
 "http://www.w3.org/TR/2001/REC-SVG-20010904/DTD/svg10.dtd">
<svg version="1.0" xmlns="http://www.w3.org/2000/svg"
 width="450.000000pt" height="450.000000pt" viewBox="0 0 450.000000 450.000000"
 preserveAspectRatio="xMidYMid meet">
<metadata>
Created by potrace 1.14, written by Peter Selinger 2001-2017
</metadata>
<g transform="translate(0.000000,450.000000) scale(0.100000,-0.100000)"
fill="#000000" stroke="none">
<path d="M3807 4358 c-81 -80 -147 -148 -147 -152 0 -8 538 -546 547 -546 4 0
71 65 151 145 l144 145 -6 50 c-3 27 -14 66 -23 87 -85 186 -321 392 -470 410
l-50 5 -146 -144z"/>
<path d="M389 4103 l-386 -388 51 -47 50 -46 134 134 c74 74 137 134 141 134
4 0 33 -27 66 -60 l60 -60 -138 -138 -137 -137 103 -103 c56 -56 106 -102 110
-102 4 0 66 59 137 130 71 72 133 130 137 130 5 0 35 -27 68 -60 l60 -60 -138
-138 -137 -137 100 -100 c54 -55 104 -100 109 -100 6 0 121 110 256 244 l246
245 65 -65 64 -64 -250 -250 -251 -249 106 -106 105 -105 138 138 137 137 64
-64 64 -65 -137 -137 -137 -138 106 -105 105 -106 138 138 137 137 64 -64 63
-63 -138 -137 -137 -138 106 -106 107 -106 242 242 c134 133 246 245 251 249
7 7 127 -104 127 -118 0 -3 -111 -117 -247 -253 l-247 -246 106 -107 106 -106
138 137 137 137 64 -63 63 -63 -137 -137 -138 -138 106 -106 106 -106 137 138
138 137 64 -64 64 -64 -137 -137 c-75 -75 -134 -141 -130 -145 4 -4 51 -52
105 -106 l97 -97 250 250 250 250 65 -65 65 -65 -243 -243 c-133 -133 -245
-246 -249 -250 -4 -4 40 -55 97 -112 l105 -105 137 137 138 138 64 -64 64 -63
-134 -135 c-74 -74 -134 -138 -134 -142 0 -4 46 -54 103 -109 l102 -101 137
137 138 137 60 -60 c33 -33 60 -63 60 -67 0 -4 -60 -68 -134 -142 l-134 -134
49 -48 c27 -26 51 -46 53 -43 46 41 766 765 766 770 0 7 -3696 3703 -3707
3706 -5 2 -182 -171 -394 -384z"/>
<path d="M3476 4029 l-49 -50 276 -276 275 -277 50 51 50 50 -276 276 -277
275 -49 -49z"/>
<path d="M2897 3448 l-406 -404 45 -47 c24 -26 48 -47 52 -47 6 0 788 776 809
803 2 2 -19 25 -46 51 l-49 48 -405 -404z"/>
<path d="M3121 3218 c-221 -221 -401 -402 -401 -403 0 -3 55 -59 77 -78 21
-18 25 -15 422 383 221 220 401 404 401 408 0 9 -82 92 -91 92 -4 0 -188 -181
-408 -402z"/>
<path d="M3351 2996 c-449 -449 -415 -402 -342 -473 l34 -32 405 405 406 405
-50 50 -49 49 -404 -404z"/>
<path d="M938 1490 l-521 -522 49 -49 49 -49 520 520 c286 287 520 522 520
523 0 1 -21 24 -48 50 l-48 49 -521 -522z"/>
<path d="M1178 1277 c-276 -277 -509 -511 -517 -520 -12 -15 -8 -22 30 -62 24
-25 47 -45 50 -45 3 0 239 232 523 516 l517 515 -28 33 c-15 18 -38 40 -50 49
-21 16 -30 8 -525 -486z"/>
<path d="M1387 1033 l-518 -518 51 -48 50 -48 259 258 c142 142 376 376 520
520 l262 261 -47 46 c-25 25 -49 46 -53 46 -3 0 -239 -233 -524 -517z"/>
<path d="M313 783 c-4 -10 -30 -76 -59 -147 l-52 -130 148 -148 c81 -81 154
-148 161 -148 8 0 78 26 157 57 l143 57 -238 238 c-131 131 -241 238 -246 238
-4 0 -11 -8 -14 -17z"/>
<path d="M127 313 c-5 -7 -42 -98 -108 -265 l-19 -48 48 19 c208 83 258 103
264 110 4 4 -34 49 -86 100 -51 51 -96 89 -99 84z"/>
</g>
</svg>
